# xmcd
#
# Track frame offsets:
#	150
#	23413
#	41803
#	61890
#	80397
#	98403
#	118306
#	137627
#	154505
#	170914
#	192707
#	213024
#	231475
#	256910
#	282947
#	300324
#	318411
#	337447
#
# Disc length: 4675 seconds
# Revision: 4
# Processed by: cddbd v1.5.2PL0 Copyright (c) Steve Scherf et al.
# Submitted via: dBpowerAMP V12.0
#
DISCID=00124112
DTITLE=Zucchero - All The Best
DYEAR=2008
DGENRE=Ballad
TTITLE0=Wonderful Life
TTITLE1=I Won't Let You Down
TTITLE2=Senza Una Donna
TTITLE3=Baila
TTITLE4=Everybody's Got To Learn Sometime
TTITLE5=Nel Cosi Blu
TTITLE6=Il Volo
TTITLE7=Bacco Perbacco
TTITLE8=Occhi
TTITLE9=Cosi Celeste
TTITLE10=Blue
TTITLE11=Diavolo In Me
TTITLE12=Dune Mosse
TTITLE13=Diamante
TTITLE14=Va, Pensiero
TTITLE15=Amen
TTITLE16=Miserere
TTITLE17=You Are So Beautiful
EXTD=
EXTT0=
EXTT1=
EXTT2=
EXTT3=
EXTT4=
EXTT5=
EXTT6=
EXTT7=
EXTT8=
EXTT9=
EXTT10=
EXTT11=
EXTT12=
EXTT13=
EXTT14=
EXTT15=
EXTT16=
EXTT17=
PLAYORDER=
